<svg width="304.916" height="304.916" viewBox="0 0 312.5 312.499" class="looka-1j8o68f" xmlns="http://www.w3.org/2000/svg">
  <path xmlns="http://www.w3.org/2000/svg" d="M312.5 156.096c0 20.588-11.677 38.717-19.051 56.846s-12.599 39.639-26.733 53.774-35.03 19.05-53.774 26.733-36.258 19.05-56.846 19.05-38.717-11.676-56.846-19.05-39.638-12.599-53.773-26.733-18.744-35.03-26.426-53.774S0 176.684 0 156.096s11.676-38.717 19.051-56.539S31.65 59.92 45.784 45.784s35.03-19.051 53.773-26.733S135.51 0 156.097 0s39.023 11.676 56.845 19.051 39.639 12.598 53.774 26.733 19.05 35.03 26.733 53.773 19.05 35.952 19.05 56.54" fill="#44355b"/>
  <path fill-rule="evenodd" clip-rule="evenodd" d="M196 92.913h-.01v-15.13c0-8.13-6.653-14.783-14.784-14.783h-50.41c-8.131 0-14.784 6.653-14.784 14.784v15.133H116v11.109h.012v24.168c0 8.131 6.653 14.784 14.784 14.784h50.41c8.131 0 14.784-6.653 14.784-14.784v-24.16h.006zm-14.794-25.97c5.978 0 10.842 4.863 10.842 10.84v15.132l-2.03-.002h-.54c-1.35 0-2.656.003-3.287.014-.412.007-.64-.126-.832-.494a30.6 30.6 0 0 1-2.803-7.85c-.194-.926-.565-1.438-1.499-1.425-1.343.02-2.724.103-4.021.431-3.898.983-7.294 3.018-10.493 5.382-1.53 1.13-2.96 2.4-4.447 3.593-.22.176-.489.288-.85.497V66.943zm-61.252 10.84c0-5.977 4.864-10.84 10.842-10.84h19.29v26.102c-.506-.173-.967-.251-1.345-.474-.759-.451-1.474-.972-2.195-1.482-4.203-2.985-9.011-4.475-13.941-5.665a6.4 6.4 0 0 0-1.134-.147c-2.074-.112-2.75.257-3.457 2.19-.586 1.608-.992 3.28-1.507 4.913-.067.21-.322.512-.493.513a331 331 0 0 1-3.966.024h-2.094zm0 50.41v-24.176h14.436c-.491.528-.877.969-1.29 1.382a450 450 0 0 1-4.534 4.465c-.53.514-.562 1.104-.467 1.775.679 4.674 1.227 9.36 1.18 14.097-.01.852-.073 1.708-.117 2.718.242-.139.433-.19.537-.316.89-1.08 1.67-2.263 2.656-3.244 3.377-3.365 6.867-6.621 10.234-9.996 2.424-2.43 4.722-4.986 7.075-7.487.111-.117.223-.235.423-.45v32.075h-19.29c-5.98 0-10.843-4.864-10.843-10.842m61.252 10.842H161.25v-33.88c2.335 2.72 4.541 5.415 6.888 7.985 2.202 2.41 4.61 4.632 6.826 7.032 2.244 2.434 4.366 4.984 6.542 7.482l.46.529c.056-.31.11-.499.123-.692.428-5.54.843-11.08 1.29-16.617.045-.574-.063-1.046-.46-1.43a1306 1306 0 0 0-5.041-4.86c-.17-.162-.354-.308-.637-.551h14.809v24.16c-.001 5.978-4.864 10.842-10.843 10.842" xmlns="http://www.w3.org/2000/svg" fill="#ffd23f"/>
  <path d="M70.322 182.377c4.14 1.96 9.53 5.064 9.53 10.674 0 1.633-.272 4.792-2.069 7.46-2.015 2.996-5.174 4.466-9.53 4.466-4.63 0-10.02-2.233-11.709-7.297-.054-.164 0-.327.164-.436l5.01-4.302c.218-.164.544-.164.708.109.109.272.327.708.599 1.252.817 1.688 2.777 3.377 4.956 3.377 1.688 0 3.975-.926 3.975-3.54 0-2.505-3.43-3.921-5.555-4.738-2.45-.98-4.955-2.233-7.08-4.084-2.232-2.07-3.321-4.357-3.321-7.08C56 171.43 62.262 168 68.198 168c4.684 0 8.17 2.45 10.456 7.297.11.218 0 .49-.163.6l-4.847 3.376c-.218.109-.327.109-.544-.164-1.852-2.668-3.486-3.92-5.664-3.92-1.144 0-3.812.435-3.812 2.45 0 2.45 4.52 3.703 6.698 4.738m-9.911 15.03c1.361 2.723 5.119 4.302 8.169 4.302 3.975 0 7.188-2.722 7.624-6.861.544-5.065-3.431-7.243-7.352-9.204l-1.743-.762c-4.03-1.797-6.97-3.159-6.97-6.916 0-4.14 3.812-6.045 7.57-6.045 3.43 0 5.227 2.015 6.153 3.267.327.436.871.055.545-.381-.926-1.144-2.887-3.54-6.699-3.54-4.302 0-8.223 2.124-8.223 6.699 0 4.084 3.268 5.663 7.406 7.57l1.689.816c5.39 2.56 7.351 4.956 6.916 8.441-.817 5.555-5.065 6.263-6.916 6.263-4.085 0-6.808-2.45-7.625-3.975-.272-.273-.653 0-.544.326m66.276-28.917c.326 0 .544.272.435.599l-9.367 35.017c-.054.217-.272.326-.49.326h-5.99q-.327 0-.49-.326l-3.703-13.778-5.01 13.832c-.055.163-.164.272-.382.272h-5.772c-.218 0-.382-.109-.436-.326l-9.312-35.072c-.055-.272.109-.544.49-.544h6.262c.164 0 .327.163.382.327l6.045 23.09 4.52-13.67-2.505-9.148c-.11-.327.163-.6.435-.6h6.753c.218 0 .327.055.436.328l5.01 22.219 5.99-22.22a.47.47 0 0 1 .436-.326zm-19.17 10.292-8.223 21.893-8.822-29.027c-.11-.38-.763-.217-.654.164l8.823 29.08c.163.763 1.089.709 1.361 0l7.788-21.02 5.718 20.966c.218.817 1.198.817 1.361.055l8.66-29.081c.162-.381-.545-.6-.654-.164l-8.605 29.027-7.95-29.027c-.055-.38-.763-.272-.6.164zm28.537 25.65c-.273 0-.436-.217-.436-.49V168.98c0-.272.163-.49.436-.49h6.208c.272 0 .49.218.49.49v34.962c0 .273-.218.49-.49.49zm2.831-32.675v29.353c0 .49.6.49.6 0v-29.353c0-.38-.6-.38-.6 0m17.155 0v29.353c0 .382.653.49.653 0v-14.649h10.02a.382.382 0 0 0 0-.762h-10.02v-13.506h12.199c.381 0 .49-.708 0-.708h-12.525c-.164 0-.327.055-.327.272m3.43 32.675h-6.262c-.272 0-.436-.217-.436-.49V168.98c0-.272.164-.49.436-.49h18.516c.272 0 .49.218.49.49v5.827c0 .272-.218.49-.49.49H159.96v7.406h9.149c.272 0 .435.218.435.49v5.937c0 .272-.163.49-.435.49h-9.15v14.322c0 .273-.217.49-.49.49m25.977-29.135h-7.733a.49.49 0 0 1-.49-.49v-5.827c0-.272.218-.49.49-.49h22.71c.272 0 .49.218.49.49v5.827c0 .272-.218.49-.49.49h-7.734v28.645c0 .273-.218.49-.49.49h-6.263a.49.49 0 0 1-.49-.49zm11.654-3.812h-16.446c-.381 0-.381.708 0 .708h8.06v28.863c0 .381.708.381.708 0v-28.863h7.678c.545 0 .49-.708 0-.708m18.08-2.995c.273 0 .49.218.49.49v28.59h11.764c.272 0 .49.218.49.49v5.882c0 .273-.218.49-.49.49h-18.462c-.272 0-.435-.217-.435-.49V168.98c0-.272.163-.49.435-.49zm-3.376 3.322v29.298c0 .11.11.273.327.273h12.58c.435 0 .435-.708 0-.708h-12.308v-28.863c0-.381-.599-.436-.599 0m27.828-3.05 4.738 9.15 4.63-9.15c.163-.272.217-.272.435-.272h6.1c.326 0 .544.327.435.599l-7.897 18.352v16.501c0 .273-.217.49-.49.49h-6.426c-.163 0-.381-.217-.381-.49v-16.5l-8.114-18.244c-.11-.381.054-.708.435-.708h6.1c.218 0 .272 0 .435.272m5.01 17.427 6.808-14.16c.163-.326-.381-.598-.6-.217l-6.48 13.56-6.644-13.56c-.217-.381-.817-.11-.653.272l6.97 14.105v15.03c0 .382.6.436.6 0zM77.453 226.603v7.593h7.543v1.328h-7.543v8.444H76v-18.793h9.121v1.428zm11.802 17.365v-18.793h1.603v18.793zm15.358 0-7.267-16.137v16.137h-1.378v-18.793h1.478l7.267 15.41.176-15.41h1.353v18.793zm15.435-3.808q-.176.776-.514 1.465c-.338.69-.523.865-.89 1.216s-.814.626-1.34.827-1.14.3-1.842.3h-4.56v-18.793h4.385q1.904 0 3.195.89c1.29.889 1.415 1.59 1.666 2.994q.075.4.125 1.24c.05.84.058 1.203.075 1.93s.025 1.49.025 2.292-.012 1.57-.037 2.306-.063 1.4-.113 1.992-.109 1.04-.175 1.34m-4.987-13.706h-2.907v16.162h3.258q.676 0 1.203-.238c.526-.238.664-.367.94-.626s.504-.548.688-.865.334-.626.452-.927q.125-.326.212-1.178c.088-.852.1-1.215.126-1.942s.037-1.5.037-2.318-.012-1.587-.037-2.305-.063-1.353-.113-1.904-.109-.936-.175-1.153q-.15-.451-.401-.94c-.25-.488-.389-.617-.664-.877s-.627-.472-1.053-.639-.948-.25-1.566-.25m27.034 17.515-1.378-5.538h-6.114l-1.378 5.538h-1.253l5.187-18.793h1.077l5.162 18.793zm-4.36-17.616-2.831 10.876h5.487zm18.464 17.616-7.267-16.137v16.137h-1.378v-18.793h1.479l7.267 15.41.175-15.41h1.353v18.793zm12.151-8.595v8.595h-1.353v-8.595l-4.533-10.198h1.554l3.633 8.695 3.684-8.695h1.553zm13.782-8.82v17.415h-1.453v-17.415h-4.085v-1.378h9.623v1.378zm16.137 17.415-.025-8.745h-6.866l.025 8.745h-1.454v-18.793h1.454l-.025 8.72h6.866l.025-8.72h1.478v18.793zm6.362 0v-18.793h1.604v18.793zm15.36 0-7.267-16.137v16.137h-1.379v-18.793h1.479l7.267 15.41.175-15.41h1.353v18.793zm10.973.226q-2.38 0-3.559-1.253c-1.177-1.253-1.177-2.071-1.177-3.709v-9.271q0-2.506 1.177-3.734c1.178-1.228 2.055-1.228 3.81-1.228q2.48 0 3.633 1.24C236 227.48 236 228.292 236 229.912v1.353h-1.353v-1.604q0-.626-.15-1.265c-.15-.64-.28-.815-.539-1.166s-.614-.635-1.065-.852-1.027-.325-1.729-.325-1.282.096-1.741.288-.827.463-1.103.814-.472.764-.589 1.24-.175 1-.175 1.567v9.372q0 .877.175 1.566c.176.689.313.848.589 1.165s.635.56 1.078.727.98.25 1.616.25q1.052 0 1.754-.263c.701-.263.843-.422 1.127-.74s.49-.7.614-1.152.188-.943.188-1.478v-3.684l-3.934-.025v-1.228l5.237.025v4.736q0 2.481-1.152 3.722c-1.153 1.24-2.064 1.24-3.884 1.24" fill="#ffd23f"/>
</svg>
